<?xml version="1.0" standalone="no"?>
<!DOCTYPE svg PUBLIC "-//W3C//DTD SVG 20010904//EN"
 "http://www.w3.org/TR/2001/REC-SVG-20010904/DTD/svg10.dtd">
<svg version="1.0" xmlns="http://www.w3.org/2000/svg"
 width="115.000000pt" height="103.000000pt" viewBox="0 0 115.000000 103.000000"
 preserveAspectRatio="xMidYMid meet">

<g transform="translate(0.000000,103.000000) scale(0.100000,-0.100000)"
fill="#000000" stroke="none">
<path d="M329 903 c-11 -15 -11 -16 1 -5 8 6 27 12 43 12 27 0 28 -2 16 -17
-13 -16 -12 -17 3 -5 14 11 21 11 46 -2 29 -15 82 -76 82 -94 0 -6 6 -12 12
-14 20 -7 13 -82 -11 -128 -12 -23 -18 -46 -15 -52 4 -6 2 -8 -4 -4 -10 6 -25
-22 -21 -40 4 -22 -3 -23 -28 -7 l-28 17 23 -23 c12 -12 22 -24 22 -28 0 -6
-21 9 -70 51 -22 19 -18 13 9 -14 25 -25 43 -47 41 -50 -2 -3 -8 -10 -14 -16
-6 -6 -29 -32 -50 -57 -37 -44 -43 -47 -89 -47 -32 0 -46 4 -41 11 5 8 1 8
-14 0 -28 -15 -85 6 -129 49 -21 20 -31 26 -25 15 23 -44 119 -115 156 -115
16 0 17 -5 12 -42 -7 -44 4 -120 24 -172 16 -44 20 -27 6 29 -12 44 -11 56 6
105 10 30 25 58 33 63 9 4 13 12 10 16 -2 5 4 16 15 26 11 10 20 15 20 10 0
-4 7 -2 15 5 9 7 18 10 21 7 3 -3 26 0 50 8 32 9 44 10 44 2 0 -7 8 -3 17 8
l15 20 -5 -20 c-2 -11 -8 -29 -13 -39 -5 -14 -4 -17 4 -12 7 4 12 15 13 24 0
14 2 13 9 -3 l9 -20 1 20 1 20 9 -20 c8 -18 9 -18 9 -2 1 10 6 15 12 12 5 -4
8 -21 5 -38 l-6 -32 11 28 c8 21 8 32 0 40 -6 6 -11 18 -11 26 0 11 4 10 15
-5 8 -10 15 -13 15 -7 0 9 7 10 23 4 13 -5 39 -12 57 -14 18 -3 44 -16 59 -29
l26 -23 -20 24 c-20 24 -20 24 0 13 23 -12 54 -69 72 -132 10 -31 5 -101 -7
-115 -7 -9 -10 -18 -7 -22 15 -15 40 76 42 152 2 79 2 79 31 87 33 9 119 79
135 111 7 13 -3 7 -24 -15 -41 -42 -75 -54 -164 -57 -66 -2 -63 -4 -141 83
l-33 36 31 30 c16 16 30 33 30 37 0 3 -13 -6 -30 -22 -28 -27 -43 -24 -20 3 7
8 7 9 -1 3 -6 -5 -18 -7 -27 -4 -10 4 -13 2 -8 -5 4 -7 5 -12 2 -12 -3 0 -10
8 -15 19 -9 15 -7 17 13 14 13 -3 26 0 30 5 4 6 -2 8 -14 5 -13 -3 -22 1 -26
12 -6 13 -9 14 -16 3 -7 -10 -8 -9 -4 5 5 16 1 31 -31 105 -12 28 -12 36 3 70
31 65 67 104 119 128 27 13 42 24 33 24 -30 0 -122 -39 -152 -65 -33 -28 -37
-30 -33 -13 1 6 -27 27 -63 45 -73 37 -130 43 -151 16z m238 -505 c-3 -7 -5
-2 -5 12 0 14 2 19 5 13 2 -7 2 -19 0 -25z m-20 0 c-3 -8 -6 -5 -6 6 -1 11 2
17 5 13 3 -3 4 -12 1 -19z"/>
<path d="M751 917 c2 -1 13 -9 24 -17 19 -14 19 -14 6 3 -7 9 -18 17 -24 17
-6 0 -8 -1 -6 -3z"/>
<path d="M790 916 c0 -2 8 -10 18 -17 15 -13 16 -12 3 4 -13 16 -21 21 -21 13z"/>
<path d="M290 895 c-7 -9 -11 -17 -9 -20 3 -2 10 5 17 15 14 24 10 26 -8 5z"/>
<path d="M726 877 c3 -10 9 -15 12 -12 3 3 0 11 -7 18 -10 9 -11 8 -5 -6z"/>
<path d="M731 683 c-10 -26 -10 -27 4 -9 8 11 15 23 15 28 0 15 -7 8 -19 -19z"/>
<path d="M336 625 c4 -8 11 -15 16 -15 6 0 5 6 -2 15 -7 8 -14 15 -16 15 -2 0
-1 -7 2 -15z"/>
<path d="M760 625 c-7 -9 -8 -15 -2 -15 5 0 12 7 16 15 3 8 4 15 2 15 -2 0 -9
-7 -16 -15z"/>
<path d="M720 615 c-11 -13 -10 -14 4 -9 9 3 16 10 16 15 0 13 -6 11 -20 -6z"/>
<path d="M410 611 c0 -5 7 -12 16 -15 14 -5 15 -4 4 9 -14 17 -20 19 -20 6z"/>
<path d="M645 600 c-10 -11 -13 -20 -7 -20 6 0 16 9 22 20 6 11 9 20 7 20 -2
0 -12 -9 -22 -20z"/>
<path d="M680 605 c-11 -13 -10 -14 4 -9 9 3 16 10 16 15 0 13 -6 11 -20 -6z"/>
<path d="M450 601 c0 -5 7 -12 16 -15 14 -5 15 -4 4 9 -14 17 -20 19 -20 6z"/>
<path d="M407 579 c7 -7 15 -10 18 -7 3 3 -2 9 -12 12 -14 6 -15 5 -6 -5z"/>
<path d="M447 569 c7 -7 15 -10 18 -7 3 3 -2 9 -12 12 -14 6 -15 5 -6 -5z"/>
<path d="M980 535 c13 -14 26 -25 28 -25 3 0 -5 11 -18 25 -13 14 -26 25 -28
25 -3 0 5 -11 18 -25z"/>
<path d="M114 528 l-19 -23 23 19 c21 18 27 26 19 26 -2 0 -12 -10 -23 -22z"/>
<path d="M149 473 l-24 -28 28 24 c15 14 27 26 27 28 0 8 -8 1 -31 -24z"/>
<path d="M930 456 c0 -2 8 -10 18 -17 15 -13 16 -12 3 4 -13 16 -21 21 -21 13z"/>
<path d="M890 446 c0 -3 9 -10 20 -16 11 -6 20 -8 20 -6 0 3 -9 10 -20 16 -11
6 -20 8 -20 6z"/>
<path d="M374 338 l-29 -33 33 29 c30 28 37 36 29 36 -2 0 -16 -15 -33 -32z"/>
<path d="M670 366 c0 -2 8 -10 18 -17 15 -13 16 -12 3 4 -13 16 -21 21 -21 13z"/>
<path d="M526 333 c-6 -14 -5 -15 5 -6 7 7 10 15 7 18 -3 3 -9 -2 -12 -12z"/>
<path d="M551 334 c0 -11 3 -14 6 -6 3 7 2 16 -1 19 -3 4 -6 -2 -5 -13z"/>
<path d="M679 312 c11 -16 28 -35 38 -43 9 -8 2 5 -17 29 -38 48 -52 57 -21
14z"/>
<path d="M374 298 l-29 -33 33 29 c30 28 37 36 29 36 -2 0 -16 -15 -33 -32z"/>
<path d="M411 257 c-42 -49 -43 -50 -7 -17 32 29 64 71 54 70 -2 -1 -23 -24
-47 -53z"/>
<path d="M541 294 c0 -11 3 -14 6 -6 3 7 2 16 -1 19 -3 4 -6 -2 -5 -13z"/>
<path d="M560 301 c0 -5 5 -13 10 -16 6 -3 10 -2 10 4 0 5 -4 13 -10 16 -5 3
-10 2 -10 -4z"/>
<path d="M379 263 l-24 -28 28 24 c25 23 32 31 24 31 -2 0 -14 -12 -28 -27z"/>
<path d="M700 245 c19 -19 36 -35 39 -35 3 0 -10 16 -29 35 -19 19 -36 35 -39
35 -3 0 10 -16 29 -35z"/>
<path d="M665 240 c10 -11 20 -20 23 -20 3 0 -3 9 -13 20 -10 11 -20 20 -23
20 -3 0 3 -9 13 -20z"/>
<path d="M439 193 l-24 -28 28 24 c15 14 27 26 27 28 0 8 -8 1 -31 -24z"/>
<path d="M670 185 c13 -14 26 -25 28 -25 3 0 -5 11 -18 25 -13 14 -26 25 -28
25 -3 0 5 -11 18 -25z"/>
<path d="M700 206 c0 -2 8 -10 18 -17 15 -13 16 -12 3 4 -13 16 -21 21 -21 13z"/>
<path d="M379 183 c-13 -16 -12 -17 4 -4 9 7 17 15 17 17 0 8 -8 3 -21 -13z"/>
<path d="M655 160 c21 -22 41 -40 44 -40 3 0 -13 18 -34 40 -21 22 -41 40 -44
40 -3 0 13 -18 34 -40z"/>
<path d="M747 169 c7 -7 15 -10 18 -7 3 3 -2 9 -12 12 -14 6 -15 5 -6 -5z"/>
<path d="M464 128 l-29 -33 33 29 c17 17 32 31 32 33 0 8 -8 1 -36 -29z"/>
<path d="M630 135 c13 -14 26 -25 28 -25 3 0 -5 11 -18 25 -13 14 -26 25 -28
25 -3 0 5 -11 18 -25z"/>
<path d="M419 133 c-13 -16 -12 -17 4 -4 16 13 21 21 13 21 -2 0 -10 -8 -17
-17z"/>
</g>
</svg>
